# xmcd CD database file
#
# Track frame offsets:
#	183
#	18400
#	35733
#	53523
#	68973
#	89590
#	108683
#	125785
#	140233
#	157830
#
# Disc length: 2305 seconds
#
# Revision: 3
# Processed by: cddbd v1.5.1PL2 Copyright (c) Steve Scherf et al.
# Submitted via: CDex 1.51
#
DISCID=9108ff0a
DTITLE=Milva - Gefühl and Verstand
DYEAR=1991
DGENRE=Jazz
TTITLE0=Welt aus Stein
TTITLE1=Mein Gott, ich lieb Dich
TTITLE2=Helden
TTITLE3=Bei Vollmond
TTITLE4=La Dolce Vita
TTITLE5=Gefühl und Verstand
TTITLE6=C'est ca, c'est la vie
TTITLE7=Weil ich will
TTITLE8=Beim nächsten mal tut's wieder weh
TTITLE9=Im Schatten der Träume
EXTD=YEAR: 1991
EXTT0=
EXTT1=
EXTT2=
EXTT3=
EXTT4=
EXTT5=
EXTT6=
EXTT7=
EXTT8=
EXTT9=
PLAYORDER=
